<svg xmlns="http://www.w3.org/2000/svg" viewBox="0 0 320 200" role="img" aria-hidden="true"><rect x="0.5" y="0.5" width="319" height="199" rx="8" fill="currentColor" opacity="0.03"/><rect x="0.5" y="0.5" width="319" height="199" rx="8" fill="none" stroke="currentColor" stroke-opacity="0.25"/><rect x="0.5" y="0.5" width="319" height="16" rx="8" fill="currentColor" opacity="0.07"/><circle cx="12" cy="8.5" r="2.6" fill="currentColor" opacity="0.35"/><circle cx="21" cy="8.5" r="2.6" fill="currentColor" opacity="0.35"/><circle cx="30" cy="8.5" r="2.6" fill="currentColor" opacity="0.35"/><rect x="52" y="6.5" width="90" height="4" rx="2" fill="currentColor" opacity="0.18"/><rect x="14" y="25" width="34" height="6" rx="3" fill="currentColor" opacity="0.6"/><rect x="170" y="26" width="22" height="4" rx="2" fill="currentColor" opacity="0.35"/><rect x="200" y="26" width="22" height="4" rx="2" fill="currentColor" opacity="0.35"/><rect x="230" y="26" width="22" height="4" rx="2" fill="currentColor" opacity="0.35"/><rect x="260" y="26" width="22" height="4" rx="2" fill="currentColor" opacity="0.35"/><rect x="14" y="44" width="146" height="146" rx="6" fill="currentColor" fill-opacity="0.12"/><path d="M14 190 L60 126 L100 166 L160 116 V190 Z" fill="currentColor" opacity="0.12"/><rect x="160" y="44" width="146" height="146" rx="6" fill="currentColor" fill-opacity="0.3"/><path d="M160 190 L203.8 109.7 L233 146.2 L259.28 117 L306 190 Z" fill="currentColor" fill-opacity="0.5"/><circle cx="276.8" cy="84.88" r="13.14" fill="currentColor" fill-opacity="0.45"/><rect x="158" y="44" width="4" height="146" rx="0" fill="currentColor" opacity="0.8"/><circle cx="160" cy="117" r="12" fill="currentColor" opacity="0.85"/><path d="M155 112 l-5 5 5 5 M165 112 l5 5 -5 5" fill="none" stroke="#fff" stroke-width="2"/></svg>
