<svg xmlns="http://www.w3.org/2000/svg" viewBox="0 0 320 200" role="img" aria-hidden="true"><rect x="0.5" y="0.5" width="319" height="199" rx="8" fill="currentColor" opacity="0.03"/><rect x="0.5" y="0.5" width="319" height="199" rx="8" fill="none" stroke="currentColor" stroke-opacity="0.25"/><rect x="0.5" y="0.5" width="319" height="16" rx="8" fill="currentColor" opacity="0.07"/><circle cx="12" cy="8.5" r="2.6" fill="currentColor" opacity="0.35"/><circle cx="21" cy="8.5" r="2.6" fill="currentColor" opacity="0.35"/><circle cx="30" cy="8.5" r="2.6" fill="currentColor" opacity="0.35"/><rect x="52" y="6.5" width="90" height="4" rx="2" fill="currentColor" opacity="0.18"/><rect x="0.5" y="17" width="319" height="182" rx="0" fill="currentColor" fill-opacity="0.3"/><path d="M0.5 199 L96.2 98.9 L160 144.4 L217.42 108 L319.5 199 Z" fill="currentColor" fill-opacity="0.5"/><circle cx="255.7" cy="67.96" r="16.38" fill="currentColor" fill-opacity="0.45"/><rect x="100" y="48" width="120" height="10" rx="5" fill="currentColor" opacity="0.75"/><rect x="58" y="92" width="46" height="50" rx="6" fill="#fff" opacity="0.8"/><rect x="68" y="106" width="26" height="14" rx="7" fill="currentColor" opacity="0.75"/><rect x="70" y="128" width="22" height="4" rx="2" fill="currentColor" opacity="0.4"/><rect x="112" y="92" width="46" height="50" rx="6" fill="#fff" opacity="0.8"/><rect x="122" y="106" width="26" height="14" rx="7" fill="currentColor" opacity="0.75"/><rect x="124" y="128" width="22" height="4" rx="2" fill="currentColor" opacity="0.4"/><rect x="166" y="92" width="46" height="50" rx="6" fill="#fff" opacity="0.8"/><rect x="176" y="106" width="26" height="14" rx="7" fill="currentColor" opacity="0.75"/><rect x="178" y="128" width="22" height="4" rx="2" fill="currentColor" opacity="0.4"/><rect x="220" y="92" width="46" height="50" rx="6" fill="#fff" opacity="0.8"/><rect x="230" y="106" width="26" height="14" rx="7" fill="currentColor" opacity="0.75"/><rect x="232" y="128" width="22" height="4" rx="2" fill="currentColor" opacity="0.4"/><rect x="132" y="156" width="56" height="14" rx="7" fill="currentColor" fill-opacity="0.5"/></svg>
