<svg xmlns="http://www.w3.org/2000/svg" viewBox="0 0 320 200" role="img" aria-hidden="true"><rect x="0.5" y="0.5" width="319" height="199" rx="8" fill="currentColor" opacity="0.03"/><rect x="0.5" y="0.5" width="319" height="199" rx="8" fill="none" stroke="currentColor" stroke-opacity="0.25"/><rect x="0.5" y="0.5" width="319" height="16" rx="8" fill="currentColor" opacity="0.07"/><circle cx="12" cy="8.5" r="2.6" fill="currentColor" opacity="0.35"/><circle cx="21" cy="8.5" r="2.6" fill="currentColor" opacity="0.35"/><circle cx="30" cy="8.5" r="2.6" fill="currentColor" opacity="0.35"/><rect x="52" y="6.5" width="90" height="4" rx="2" fill="currentColor" opacity="0.18"/><rect x="14" y="25" width="34" height="6" rx="3" fill="currentColor" opacity="0.6"/><rect x="170" y="26" width="22" height="4" rx="2" fill="currentColor" opacity="0.35"/><rect x="200" y="26" width="22" height="4" rx="2" fill="currentColor" opacity="0.35"/><rect x="230" y="26" width="22" height="4" rx="2" fill="currentColor" opacity="0.35"/><rect x="260" y="26" width="22" height="4" rx="2" fill="currentColor" opacity="0.35"/><circle cx="64" cy="106" r="24" fill="currentColor" fill-opacity="0.35"/><path d="M96.0 106.0 L104.0 106.0" stroke="currentColor" stroke-opacity="0.6" stroke-width="2.5" stroke-linecap="round"/><path d="M86.6 128.6 L92.3 134.3" stroke="currentColor" stroke-opacity="0.6" stroke-width="2.5" stroke-linecap="round"/><path d="M64.0 138.0 L64.0 146.0" stroke="currentColor" stroke-opacity="0.6" stroke-width="2.5" stroke-linecap="round"/><path d="M41.4 128.6 L35.7 134.3" stroke="currentColor" stroke-opacity="0.6" stroke-width="2.5" stroke-linecap="round"/><path d="M32.0 106.0 L24.0 106.0" stroke="currentColor" stroke-opacity="0.6" stroke-width="2.5" stroke-linecap="round"/><path d="M41.4 83.4 L35.7 77.7" stroke="currentColor" stroke-opacity="0.6" stroke-width="2.5" stroke-linecap="round"/><path d="M64.0 74.0 L64.0 66.0" stroke="currentColor" stroke-opacity="0.6" stroke-width="2.5" stroke-linecap="round"/><path d="M86.6 83.4 L92.3 77.7" stroke="currentColor" stroke-opacity="0.6" stroke-width="2.5" stroke-linecap="round"/><rect x="120" y="86" width="150" height="14" rx="7" fill="currentColor" opacity="0.75"/><rect x="120" y="112" width="170" height="4" rx="2" fill="currentColor" opacity="0.3"/><rect x="120" y="122" width="105.4" height="4" rx="2" fill="currentColor" opacity="0.3"/></svg>
