<svg xmlns="http://www.w3.org/2000/svg" viewBox="0 0 320 200" role="img" aria-hidden="true"><rect x="0.5" y="0.5" width="319" height="199" rx="8" fill="currentColor" opacity="0.03"/><rect x="0.5" y="0.5" width="319" height="199" rx="8" fill="none" stroke="currentColor" stroke-opacity="0.25"/><rect x="0.5" y="0.5" width="319" height="16" rx="8" fill="currentColor" opacity="0.07"/><circle cx="12" cy="8.5" r="2.6" fill="currentColor" opacity="0.35"/><circle cx="21" cy="8.5" r="2.6" fill="currentColor" opacity="0.35"/><circle cx="30" cy="8.5" r="2.6" fill="currentColor" opacity="0.35"/><rect x="52" y="6.5" width="90" height="4" rx="2" fill="currentColor" opacity="0.18"/><rect x="14" y="25" width="34" height="6" rx="3" fill="currentColor" opacity="0.6"/><rect x="170" y="26" width="22" height="4" rx="2" fill="currentColor" opacity="0.35"/><rect x="200" y="26" width="22" height="4" rx="2" fill="currentColor" opacity="0.35"/><rect x="230" y="26" width="22" height="4" rx="2" fill="currentColor" opacity="0.35"/><rect x="260" y="26" width="22" height="4" rx="2" fill="currentColor" opacity="0.35"/><rect x="14" y="42" width="120" height="8" rx="4" fill="currentColor" opacity="0.75"/><circle cx="74" cy="122" r="46" fill="currentColor" fill-opacity="0.15"/><circle cx="74" cy="122" r="46" fill="none" stroke="currentColor" stroke-opacity="0.4" stroke-width="2"/><path d="M74 96 V122 L92 134" fill="none" stroke="currentColor" stroke-opacity="0.8" stroke-width="3" stroke-linecap="round"/><rect x="150" y="70" width="90" height="14" rx="7" fill="currentColor" fill-opacity="0.5"/><rect x="150" y="98" width="50" height="4" rx="2" fill="currentColor" opacity="0.5"/><rect x="220" y="98" width="70" height="4" rx="2" fill="currentColor" opacity="0.7"/><rect x="150" y="116" width="50" height="4" rx="2" fill="currentColor" opacity="0.5"/><rect x="220" y="116" width="70" height="4" rx="2" fill="currentColor" opacity="0.7"/><rect x="150" y="134" width="50" height="4" rx="2" fill="currentColor" opacity="0.5"/><rect x="220" y="134" width="70" height="4" rx="2" fill="currentColor" opacity="0.7"/><rect x="150" y="152" width="50" height="4" rx="2" fill="currentColor" opacity="0.5"/><rect x="220" y="152" width="70" height="4" rx="2" fill="currentColor" opacity="0.7"/><rect x="150" y="170" width="50" height="4" rx="2" fill="currentColor" opacity="0.5"/><rect x="220" y="170" width="70" height="4" rx="2" fill="currentColor" opacity="0.7"/></svg>
