<svg xmlns="http://www.w3.org/2000/svg" viewBox="0 0 320 200" role="img" aria-hidden="true"><rect x="0.5" y="0.5" width="319" height="199" rx="8" fill="currentColor" opacity="0.03"/><rect x="0.5" y="0.5" width="319" height="199" rx="8" fill="none" stroke="currentColor" stroke-opacity="0.25"/><rect x="0.5" y="0.5" width="319" height="16" rx="8" fill="currentColor" opacity="0.07"/><circle cx="12" cy="8.5" r="2.6" fill="currentColor" opacity="0.35"/><circle cx="21" cy="8.5" r="2.6" fill="currentColor" opacity="0.35"/><circle cx="30" cy="8.5" r="2.6" fill="currentColor" opacity="0.35"/><rect x="52" y="6.5" width="90" height="4" rx="2" fill="currentColor" opacity="0.18"/><rect x="14" y="25" width="34" height="6" rx="3" fill="currentColor" opacity="0.6"/><rect x="170" y="26" width="22" height="4" rx="2" fill="currentColor" opacity="0.35"/><rect x="200" y="26" width="22" height="4" rx="2" fill="currentColor" opacity="0.35"/><rect x="230" y="26" width="22" height="4" rx="2" fill="currentColor" opacity="0.35"/><rect x="260" y="26" width="22" height="4" rx="2" fill="currentColor" opacity="0.35"/><rect x="14" y="44" width="142" height="146" rx="4" fill="currentColor" opacity="0.05"/><rect x="14" y="44" width="142" height="146" rx="4" fill="none" stroke="currentColor" stroke-opacity="0.18"/><rect x="18" y="48" width="134" height="70" rx="3" fill="currentColor" fill-opacity="0.3"/><path d="M18 118 L58.2 79.5 L85 97 L109.12 83 L152 118 Z" fill="currentColor" fill-opacity="0.5"/><circle cx="125.2" cy="67.6" r="6.3" fill="currentColor" fill-opacity="0.45"/><rect x="26" y="128" width="80" height="7" rx="3.5" fill="currentColor" opacity="0.75"/><rect x="26" y="144" width="110" height="4" rx="2" fill="currentColor" opacity="0.3"/><rect x="26" y="153" width="68.2" height="4" rx="2" fill="currentColor" opacity="0.3"/><rect x="26" y="166" width="52" height="12" rx="6" fill="currentColor" fill-opacity="0.5"/><rect x="164" y="44" width="142" height="146" rx="4" fill="currentColor" opacity="0.05"/><rect x="164" y="44" width="142" height="146" rx="4" fill="none" stroke="currentColor" stroke-opacity="0.18"/><rect x="168" y="48" width="134" height="70" rx="3" fill="currentColor" fill-opacity="0.3"/><path d="M168 118 L208.2 79.5 L235 97 L259.12 83 L302 118 Z" fill="currentColor" fill-opacity="0.5"/><circle cx="275.2" cy="67.6" r="6.3" fill="currentColor" fill-opacity="0.45"/><rect x="176" y="128" width="80" height="7" rx="3.5" fill="currentColor" opacity="0.75"/><rect x="176" y="144" width="110" height="4" rx="2" fill="currentColor" opacity="0.3"/><rect x="176" y="153" width="68.2" height="4" rx="2" fill="currentColor" opacity="0.3"/><rect x="176" y="166" width="52" height="12" rx="6" fill="currentColor" fill-opacity="0.5"/></svg>
