<svg xmlns="http://www.w3.org/2000/svg" viewBox="0 0 320 200" role="img" aria-hidden="true"><rect x="0.5" y="0.5" width="319" height="199" rx="8" fill="currentColor" opacity="0.03"/><rect x="0.5" y="0.5" width="319" height="199" rx="8" fill="none" stroke="currentColor" stroke-opacity="0.25"/><rect x="0.5" y="0.5" width="319" height="16" rx="8" fill="currentColor" opacity="0.07"/><circle cx="12" cy="8.5" r="2.6" fill="currentColor" opacity="0.35"/><circle cx="21" cy="8.5" r="2.6" fill="currentColor" opacity="0.35"/><circle cx="30" cy="8.5" r="2.6" fill="currentColor" opacity="0.35"/><rect x="52" y="6.5" width="90" height="4" rx="2" fill="currentColor" opacity="0.18"/><rect x="14" y="25" width="34" height="6" rx="3" fill="currentColor" opacity="0.6"/><rect x="170" y="26" width="22" height="4" rx="2" fill="currentColor" opacity="0.35"/><rect x="200" y="26" width="22" height="4" rx="2" fill="currentColor" opacity="0.35"/><rect x="230" y="26" width="22" height="4" rx="2" fill="currentColor" opacity="0.35"/><rect x="260" y="26" width="22" height="4" rx="2" fill="currentColor" opacity="0.35"/><path d="M60 70 q-14 0 -14 16 v10 h16 v-14 h-8 q0 -8 8 -8 z M92 70 q-14 0 -14 16 v10 h16 v-14 h-8 q0 -8 8 -8 z" fill="currentColor" fill-opacity="0.35"/><rect x="110" y="74" width="170" height="6" rx="3" fill="currentColor" opacity="0.5"/><rect x="110" y="85" width="170" height="6" rx="3" fill="currentColor" opacity="0.5"/><rect x="110" y="96" width="105.4" height="6" rx="3" fill="currentColor" opacity="0.5"/><circle cx="122" cy="144" r="10" fill="currentColor" fill-opacity="0.3"/><rect x="140" y="140" width="70" height="5" rx="2.5" fill="currentColor" opacity="0.6"/></svg>
