<svg xmlns="http://www.w3.org/2000/svg" viewBox="0 0 320 200" role="img" aria-hidden="true"><rect x="0.5" y="0.5" width="319" height="199" rx="8" fill="currentColor" opacity="0.03"/><rect x="0.5" y="0.5" width="319" height="199" rx="8" fill="none" stroke="currentColor" stroke-opacity="0.25"/><rect x="0.5" y="0.5" width="319" height="16" rx="8" fill="currentColor" opacity="0.07"/><circle cx="12" cy="8.5" r="2.6" fill="currentColor" opacity="0.35"/><circle cx="21" cy="8.5" r="2.6" fill="currentColor" opacity="0.35"/><circle cx="30" cy="8.5" r="2.6" fill="currentColor" opacity="0.35"/><rect x="52" y="6.5" width="90" height="4" rx="2" fill="currentColor" opacity="0.18"/><rect x="14" y="25" width="34" height="6" rx="3" fill="currentColor" opacity="0.6"/><rect x="170" y="26" width="22" height="4" rx="2" fill="currentColor" opacity="0.35"/><rect x="200" y="26" width="22" height="4" rx="2" fill="currentColor" opacity="0.35"/><rect x="230" y="26" width="22" height="4" rx="2" fill="currentColor" opacity="0.35"/><rect x="260" y="26" width="22" height="4" rx="2" fill="currentColor" opacity="0.35"/><rect x="40" y="56" width="240" height="24" rx="12" fill="currentColor" opacity="0.06"/><rect x="40" y="56" width="240" height="24" rx="12" fill="none" stroke="currentColor" stroke-opacity="0.4"/><circle cx="58" cy="67" r="5" fill="none" stroke="currentColor" stroke-opacity="0.6" stroke-width="2"/><path d="M62 71 l4 4" stroke="currentColor" stroke-opacity="0.6" stroke-width="2"/><rect x="74" y="66" width="80" height="4" rx="2" fill="currentColor" opacity="0.4"/><rect x="232" y="60" width="42" height="16" rx="8" fill="currentColor" fill-opacity="0.5"/><rect x="40" y="98" width="140" height="6" rx="3" fill="currentColor" opacity="0.7"/><rect x="40" y="110" width="230" height="4" rx="2" fill="currentColor" opacity="0.3"/><rect x="40" y="128" width="140" height="6" rx="3" fill="currentColor" opacity="0.7"/><rect x="40" y="140" width="230" height="4" rx="2" fill="currentColor" opacity="0.3"/><rect x="40" y="158" width="140" height="6" rx="3" fill="currentColor" opacity="0.7"/><rect x="40" y="170" width="230" height="4" rx="2" fill="currentColor" opacity="0.3"/></svg>
