<svg xmlns="http://www.w3.org/2000/svg" viewBox="0 0 320 200" role="img" aria-hidden="true"><rect x="0.5" y="0.5" width="319" height="199" rx="8" fill="currentColor" opacity="0.03"/><rect x="0.5" y="0.5" width="319" height="199" rx="8" fill="none" stroke="currentColor" stroke-opacity="0.25"/><rect x="0.5" y="0.5" width="319" height="16" rx="8" fill="currentColor" opacity="0.07"/><circle cx="12" cy="8.5" r="2.6" fill="currentColor" opacity="0.35"/><circle cx="21" cy="8.5" r="2.6" fill="currentColor" opacity="0.35"/><circle cx="30" cy="8.5" r="2.6" fill="currentColor" opacity="0.35"/><rect x="52" y="6.5" width="90" height="4" rx="2" fill="currentColor" opacity="0.18"/><rect x="14" y="25" width="34" height="6" rx="3" fill="currentColor" opacity="0.6"/><rect x="170" y="26" width="22" height="4" rx="2" fill="currentColor" opacity="0.35"/><rect x="200" y="26" width="22" height="4" rx="2" fill="currentColor" opacity="0.35"/><rect x="230" y="26" width="22" height="4" rx="2" fill="currentColor" opacity="0.35"/><rect x="260" y="26" width="22" height="4" rx="2" fill="currentColor" opacity="0.35"/><rect x="159" y="42" width="2" height="150" rx="1" fill="currentColor" opacity="0.3"/><circle cx="160" cy="56" r="6" fill="currentColor" fill-opacity="0.5"/><rect x="30" y="44" width="116" height="34" rx="4" fill="currentColor" opacity="0.05"/><rect x="30" y="44" width="116" height="34" rx="4" fill="none" stroke="currentColor" stroke-opacity="0.18"/><rect x="40" y="52" width="40" height="5" rx="2.5" fill="currentColor" opacity="0.6"/><rect x="40" y="62" width="90" height="4" rx="2" fill="currentColor" opacity="0.3"/><circle cx="160" cy="100" r="6" fill="currentColor" fill-opacity="0.5"/><rect x="174" y="88" width="116" height="34" rx="4" fill="currentColor" opacity="0.05"/><rect x="174" y="88" width="116" height="34" rx="4" fill="none" stroke="currentColor" stroke-opacity="0.18"/><rect x="184" y="96" width="40" height="5" rx="2.5" fill="currentColor" opacity="0.6"/><rect x="184" y="106" width="90" height="4" rx="2" fill="currentColor" opacity="0.3"/><circle cx="160" cy="144" r="6" fill="currentColor" fill-opacity="0.5"/><rect x="30" y="132" width="116" height="34" rx="4" fill="currentColor" opacity="0.05"/><rect x="30" y="132" width="116" height="34" rx="4" fill="none" stroke="currentColor" stroke-opacity="0.18"/><rect x="40" y="140" width="40" height="5" rx="2.5" fill="currentColor" opacity="0.6"/><rect x="40" y="150" width="90" height="4" rx="2" fill="currentColor" opacity="0.3"/><circle cx="160" cy="188" r="6" fill="currentColor" fill-opacity="0.5"/><rect x="174" y="176" width="116" height="34" rx="4" fill="currentColor" opacity="0.05"/><rect x="174" y="176" width="116" height="34" rx="4" fill="none" stroke="currentColor" stroke-opacity="0.18"/><rect x="184" y="184" width="40" height="5" rx="2.5" fill="currentColor" opacity="0.6"/><rect x="184" y="194" width="90" height="4" rx="2" fill="currentColor" opacity="0.3"/></svg>
